<svg xmlns="http://www.w3.org/2000/svg" width="570" height="117" fill="none"><path fill="#14392D" d="m65.122 79.107 22.19 22.19 13.944-13.978-14.494-14.494a26.24 26.24 0 0 0-18.563-7.689H42.233a26.25 26.25 0 0 0-18.563 7.689L9.175 87.319l13.985 13.978 22.19-22.19v31.38h19.772zM110.487 65.13V45.358h-31.38l22.191-22.19L87.326 9.197l-22.19 22.19V0H45.366v31.393l-22.19-22.19L9.19 23.175 31.38 45.35H0v19.772h21.239c6.52 0 12.817-2.425 17.646-6.813l16.362-14.847L71.59 58.31a26.26 26.26 0 0 0 17.653 6.82zM390.955 98.211 371.392 37.79h16.913l10.39 37.572 10.752-37.572h15.343l10.752 37.572 10.269-37.572h16.913L442.893 98.21h-15.109l-10.605-37.467-11.115 37.467zM339.281 99.644c-18.726 0-32.135-13.289-32.135-31.41s13.409-31.41 32.135-31.41 32.135 13.288 32.135 31.41c0 18.121-13.41 31.41-32.135 31.41m0-14.497c9.061 0 15.222-6.886 15.222-16.913 0-10.148-6.161-17.034-15.222-17.034s-15.222 6.886-15.222 17.034c0 10.027 6.161 16.913 15.222 16.913M284.245 98.211V11.332h16.998v86.879zM257.803 98.211V11.332h17.004v86.879zM231.347 98.211V37.79h17.013V98.21zm0-86.879h17.013v17.76h-17.013zM152.982 98.211 133.151 37.79h16.914l10.389 37.572 10.752-37.572h15.343l10.752 37.572L207.57 37.79h16.914L204.921 98.21h-15.11l-10.873-37.467-10.846 37.467z"/><path fill="#4C9467" d="M473.132 98V67.2h9.064q4.311 0 7.788 1.804 3.519 1.804 5.544 5.236 2.067 3.432 2.068 8.36 0 4.884-2.068 8.36-2.025 3.432-5.544 5.236Q486.507 98 482.196 98zm3.784-3.388h5.236q2.992 0 5.632-1.232t4.268-3.872q1.628-2.684 1.628-6.908 0-4.268-1.628-6.908-1.629-2.64-4.268-3.872a13.16 13.16 0 0 0-5.632-1.232h-5.236zm35.268 3.74q-3.257 0-5.808-1.452a10.7 10.7 0 0 1-4.004-4.092q-1.452-2.596-1.452-5.896 0-3.345 1.452-5.896a10.4 10.4 0 0 1 4.004-4.048q2.552-1.496 5.808-1.496 3.3 0 5.852 1.496a10.4 10.4 0 0 1 4.004 4.048q1.452 2.552 1.452 5.896 0 3.3-1.452 5.896a10.73 10.73 0 0 1-4.004 4.092q-2.553 1.452-5.852 1.452m0-3.168q2.288 0 4.004-1.056a7.24 7.24 0 0 0 2.728-2.904q.968-1.892.968-4.312t-.968-4.268q-.969-1.892-2.728-2.948-1.716-1.056-4.004-1.056-2.244 0-4.004 1.056-1.716 1.056-2.684 2.948-.969 1.848-.968 4.268 0 2.42.968 4.312.968 1.848 2.684 2.904 1.76 1.056 4.004 1.056m25.244 3.168q-3.477 0-5.896-1.628a10.36 10.36 0 0 1-3.652-4.224 13.05 13.05 0 0 1-1.232-5.588q0-2.992 1.232-5.588a10.36 10.36 0 0 1 3.652-4.224q2.42-1.628 5.896-1.628 2.508 0 4.664.924a9.4 9.4 0 0 1 3.608 2.684q1.495 1.76 1.804 4.224h-3.476q-.309-2.024-2.2-3.344-1.848-1.32-4.356-1.32-2.42 0-4.004 1.144-1.584 1.1-2.376 2.992-.792 1.848-.792 4.136 0 2.244.792 4.136t2.376 3.036q1.628 1.1 4.004 1.1 2.508 0 4.224-1.144 1.76-1.188 2.332-3.212h3.432q-.572 3.388-3.212 5.456-2.596 2.068-6.82 2.068m21.68 0q-3.872 0-6.16-1.936-2.288-1.98-2.552-5.5h3.3q.22 2.068 1.628 3.256 1.408 1.144 3.784 1.144 2.156 0 3.476-.968 1.32-1.013 1.32-2.684 0-1.452-.968-2.156-.924-.705-2.42-1.012a61 61 0 0 0-3.124-.572 18 18 0 0 1-3.124-.792 6 6 0 0 1-2.42-1.716q-.924-1.188-.924-3.388 0-2.948 2.2-4.752t5.632-1.804q3.784 0 5.984 1.804 2.2 1.76 2.464 4.972h-3.344q-.175-1.76-1.584-2.772-1.364-1.056-3.476-1.056-1.76 0-3.124.88-1.32.88-1.32 2.508 0 1.408.924 2.068.968.616 2.42.924 1.496.264 3.124.528 1.672.22 3.124.836 1.496.572 2.42 1.804.968 1.232.968 3.564 0 3.08-2.2 4.972-2.156 1.848-6.028 1.848"/></svg>